<?xml version="1.0" encoding="UTF-8" standalone="no"?>
<!DOCTYPE svg PUBLIC "-//W3C//DTD SVG 1.1//EN" "http://www.w3.org/Graphics/SVG/1.1/DTD/svg11.dtd">
<svg xmlns="http://www.w3.org/2000/svg" version="1.1" viewBox="0.00 0.00 1920.00 1080.00">
<path fill="#ffffff" d="
  M 633.40 707.83
  A 0.06 0.05 -23.7 0 1 633.36 707.93
  Q 623.24 706.04 613.72 703.29
  C 594.46 697.73 575.98 687.81 560.58 674.24
  C 532.34 649.33 515.62 614.45 510.02 577.02
  Q 506.25 551.84 507.17 528.38
  Q 508.20 502.31 513.03 482.44
  C 521.15 449.02 537.57 419.87 563.53 398.28
  C 591.96 374.65 627.55 365.35 664.00 364.61
  Q 668.11 364.53 669.92 365.25
  A 0.31 0.31 0.0 0 1 669.96 365.81
  Q 668.22 366.82 667.14 367.14
  Q 632.18 377.39 607.42 402.45
  C 596.16 413.85 586.91 427.90 579.89 442.38
  C 568.14 466.59 562.24 492.35 560.08 519.78
  Q 558.10 544.78 560.03 569.23
  C 564.29 623.13 584.54 678.73 633.40 707.83
  Z"
/>
<path fill="#ffffff" d="
  M 804.70 703.46
  A 0.11 0.10 -62.8 0 1 804.64 703.27
  C 836.19 680.24 854.80 648.58 864.23 611.00
  C 872.26 579.06 873.62 544.78 870.22 512.00
  C 865.98 471.20 851.03 428.23 820.54 399.46
  Q 816.32 395.47 811.69 391.73
  A 0.32 0.32 0.0 0 1 811.77 391.19
  L 875.37 364.70
  A 3.65 3.64 -40.6 0 1 878.66 364.95
  Q 880.44 366.02 884.65 368.64
  C 886.82 370.00 886.80 371.14 886.79 373.75
  Q 886.59 430.60 886.63 651.75
  C 886.63 661.55 889.39 669.21 898.60 673.92
  Q 905.98 677.70 908.99 678.77
  Q 909.33 678.90 937.05 689.03
  A 2.49 2.49 0.0 0 1 938.68 691.37
  L 938.68 702.47
  A 0.99 0.99 0.0 0 1 937.69 703.46
  L 804.70 703.46
  Z"
/>
<path fill="#ffffff" d="
  M 627.19 634.82
  A 0.15 0.15 0.0 0 1 627.42 634.64
  C 646.61 649.98 673.68 651.78 695.73 642.21
  C 710.48 635.82 721.03 623.64 728.64 609.32
  C 740.19 587.61 743.24 563.40 743.00 538.24
  Q 742.85 522.62 741.98 513.78
  C 737.47 468.04 714.24 423.27 660.67 427.41
  Q 655.62 427.80 645.70 430.11
  Q 645.17 430.24 644.71 430.20
  A 0.30 0.30 0.0 0 1 644.52 429.70
  C 667.37 405.09 700.81 397.99 733.50 402.81
  C 771.66 408.45 797.44 433.47 810.56 468.70
  Q 817.62 487.66 820.20 506.50
  Q 825.35 544.05 820.35 581.55
  C 816.85 607.83 808.42 633.85 791.02 654.34
  C 768.53 680.82 738.14 690.23 704.08 687.35
  Q 674.75 684.88 652.74 666.75
  C 642.22 658.09 632.84 646.98 627.19 634.82
  Z"
/>
<path fill="#ffffff" d="
  M 1100.40 617.27
  A 0.34 0.34 0.0 0 0 1100.94 617.00
  L 1100.94 610.25
  A 0.82 0.82 0.0 0 1 1101.76 609.43
  L 1124.48 609.43
  A 0.96 0.95 0.3 0 1 1125.44 610.39
  L 1125.34 621.43
  A 0.48 0.48 0.0 0 0 1126.18 621.75
  Q 1126.23 621.70 1130.44 617.60
  C 1138.15 610.11 1149.20 607.13 1159.94 608.24
  A 1.63 1.62 -87.1 0 1 1161.39 609.86
  L 1161.39 613.00
  A 1.04 1.04 0.0 0 0 1163.02 613.85
  Q 1166.03 611.76 1170.29 610.50
  Q 1192.76 603.86 1212.98 614.35
  C 1216.89 616.38 1219.11 618.35 1222.88 621.40
  A 0.19 0.19 0.0 0 0 1223.17 621.32
  C 1227.00 612.04 1232.76 603.41 1240.46 596.75
  Q 1260.52 579.43 1286.99 580.13
  Q 1312.41 580.80 1332.28 599.23
  Q 1332.75 599.67 1335.69 603.78
  A 0.36 0.36 0.0 0 0 1336.30 603.73
  Q 1336.71 602.93 1336.79 601.98
  Q 1336.98 599.47 1337.10 581.91
  A 0.65 0.65 0.0 0 1 1337.66 581.27
  Q 1343.06 580.50 1348.32 581.40
  A 2.98 2.93 71.1 0 1 1349.84 582.16
  Q 1355.24 587.26 1357.37 589.55
  Q 1374.96 608.48 1420.81 656.84
  Q 1421.67 657.75 1422.11 657.96
  A 0.68 0.68 0.0 0 0 1423.08 657.35
  L 1423.08 581.73
  A 0.61 0.61 0.0 0 1 1423.69 581.12
  L 1529.44 581.12
  A 0.66 0.66 0.0 0 1 1530.10 581.78
  L 1530.10 602.15
  A 0.56 0.55 -0.0 0 1 1529.54 602.70
  L 1463.84 602.70
  A 0.73 0.73 0.0 0 0 1463.11 603.42
  Q 1463.07 606.44 1463.01 623.01
  Q 1462.98 629.60 1463.65 633.17
  A 0.87 0.87 0.0 0 0 1464.28 633.85
  Q 1466.53 634.46 1469.25 634.40
  Q 1491.69 633.89 1518.54 634.54
  A 0.72 0.72 0.0 0 1 1519.24 635.26
  L 1519.24 654.34
  A 0.74 0.74 0.0 0 1 1518.50 655.08
  L 1464.32 655.08
  A 1.34 1.34 0.0 0 0 1462.98 656.42
  L 1462.98 680.85
  A 1.77 1.77 0.0 0 0 1464.47 682.60
  Q 1467.92 683.16 1470.50 683.14
  Q 1499.50 682.89 1532.78 683.33
  A 0.93 0.93 0.0 0 1 1533.70 684.26
  L 1533.70 703.50
  A 1.22 1.22 0.0 0 1 1532.48 704.72
  Q 1474.85 704.75 1444.50 704.83
  C 1442.42 704.83 1437.03 705.16 1434.84 703.22
  Q 1432.97 701.57 1424.49 692.56
  Q 1398.97 665.43 1363.17 627.85
  A 0.74 0.74 0.0 0 0 1361.89 628.36
  L 1361.89 704.14
  A 0.60 0.59 -0.0 0 1 1361.29 704.73
  L 1337.67 704.73
  A 0.72 0.72 0.0 0 1 1336.95 704.01
  L 1336.95 682.77
  A 0.69 0.69 0.0 0 0 1335.71 682.36
  Q 1332.99 686.12 1328.72 689.72
  Q 1314.87 701.43 1297.00 704.74
  C 1293.22 705.44 1286.73 705.97 1282.13 705.73
  Q 1252.36 704.15 1233.22 681.59
  A 0.75 0.75 0.0 0 0 1232.03 681.66
  Q 1224.27 693.27 1212.79 699.44
  C 1186.28 713.65 1150.87 703.40 1138.97 674.89
  Q 1131.25 656.40 1139.76 636.86
  A 0.77 0.77 0.0 0 0 1138.74 635.85
  C 1134.98 637.55 1132.04 639.74 1129.83 643.51
  Q 1125.65 650.61 1125.48 658.77
  Q 1125.24 670.41 1125.40 704.12
  A 0.56 0.56 0.0 0 1 1124.84 704.69
  L 1101.95 704.69
  A 0.96 0.95 -90.0 0 1 1101.00 703.73
  L 1101.00 698.83
  A 0.63 0.63 0.0 0 0 1099.93 698.38
  Q 1098.48 699.79 1096.57 700.53
  Q 1087.28 704.10 1084.10 704.59
  C 1080.26 705.18 1073.25 706.08 1067.61 705.69
  Q 1057.40 704.99 1049.02 700.79
  A 0.56 0.55 -76.8 0 0 1048.22 701.29
  L 1048.22 703.20
  A 1.42 1.42 0.0 0 1 1046.81 704.62
  Q 1011.56 704.84 949.52 704.73
  Q 946.02 704.73 943.87 704.32
  A 0.66 0.65 -84.8 0 1 943.34 703.67
  C 943.40 699.93 942.74 694.90 945.50 691.26
  Q 959.12 673.23 1011.47 603.53
  A 0.55 0.55 0.0 0 0 1011.03 602.65
  L 947.68 602.65
  A 0.96 0.95 -0.0 0 1 946.72 601.70
  L 946.72 581.75
  A 0.62 0.61 -0.0 0 1 947.34 581.14
  L 1046.69 581.14
  A 1.18 1.18 0.0 0 1 1047.87 582.32
  L 1047.87 590.77
  A 4.36 4.31 -26.8 0 1 1047.00 593.37
  L 979.87 682.35
  A 0.44 0.44 0.0 0 0 980.22 683.05
  L 1028.33 683.05
  A 1.01 1.01 0.0 0 0 1029.17 681.48
  Q 1027.79 679.43 1026.93 677.33
  C 1016.43 651.44 1027.02 619.80 1055.10 610.55
  C 1070.24 605.56 1087.39 607.46 1100.40 617.27
  Z
  M 1244.9739 642.4018
  A 39.98 39.77 -179.2 0 0 1284.3947 682.7261
  A 39.98 39.77 -179.2 0 0 1324.9261 643.5182
  A 39.98 39.77 -179.2 0 0 1285.5053 603.1939
  A 39.98 39.77 -179.2 0 0 1244.9739 642.4018
  Z
  M 1047.51 647.86
  Q 1048.71 648.34 1050.00 648.34
  Q 1072.74 648.40 1093.56 648.40
  A 0.68 0.68 0.0 0 0 1094.24 647.67
  C 1092.68 625.21 1065.05 620.21 1052.44 636.73
  C 1049.57 640.50 1048.84 644.01 1047.32 647.37
  A 0.37 0.36 -66.8 0 0 1047.51 647.86
  Z
  M 1159.1207 656.6838
  A 28.10 27.34 -179.6 0 0 1187.0291 684.2193
  A 28.10 27.34 -179.6 0 0 1215.3193 657.0762
  A 28.10 27.34 -179.6 0 0 1187.4109 629.5407
  A 28.10 27.34 -179.6 0 0 1159.1207 656.6838
  Z
  M 1101.03 673.37
  L 1101.03 664.45
  A 0.64 0.63 0.0 0 0 1100.39 663.82
  L 1047.83 663.82
  A 0.68 0.68 0.0 0 0 1047.20 664.77
  C 1048.74 668.40 1049.59 671.88 1052.38 675.29
  C 1056.22 679.97 1061.85 683.49 1067.98 684.39
  Q 1072.86 685.11 1074.12 685.12
  C 1081.84 685.18 1089.23 682.70 1094.98 677.62
  Q 1097.43 675.44 1097.85 675.13
  A 5.13 5.06 18.8 0 1 1099.50 674.33
  L 1100.52 674.04
  A 0.71 0.69 -8.4 0 0 1101.03 673.37
  Z"
/>
</svg>
